<svg id="Layer_1" data-name="Layer 1" xmlns="http://www.w3.org/2000/svg" viewBox="0 0 2324.06 498.52"><defs><style>.cls-1{fill:#fdd700;}.cls-2{fill:#091724;}</style></defs><path class="cls-1" d="M398.56,14.82H215.91a150,150,0,0,0-150,150v30.06c3-4.15,6-8.21,9.26-12.15,9.2-11.11,28.23-29,39.47-37,36.49-25.88,77.35-39.54,120.3-40.31,23.45-.33,39.91,2,48.23,6.83,1.41.77,4.74,3.83,7.54,6.89,4.21,4.61,5.42,6.59,7.14,11.65,5.34,15.88-1.77,34-16.6,42.15-7.51,4.2-13.67,5.11-26.74,3.87-34.79-3.15-65.19,4.25-94,22.8-9.51,6.18-25.57,21-33,30.48C107.18,256,97,285.59,96.85,319c-.1,34.22,11,65,33.17,91.67,25.22,30.36,64.57,49,105,49.66a144.89,144.89,0,0,0,92-30.8c8.86-7.08,23.59-22.69,29.51-31.56,17.65-26.07,26.66-59.75,24.06-89.48-2.16-24-.74-29.54,10.07-40.47,5.59-5.59,7.06-6.69,11.62-8.3a37.54,37.54,0,0,1,24.29-.4c6,2,6.85,2.6,12.79,8.55,8.05,8,9.64,11.95,11.32,28.29a215.61,215.61,0,0,1-19.39,112.54c-16.54,35.21-45.49,67.76-78.32,88.79h45.64a150,150,0,0,0,150-150V164.82A150,150,0,0,0,398.56,14.82Zm24.37,165L421,185.23l-69.12,69.11-69.11,69.12-6.42,2.32a39,39,0,0,1-24.48.34c-6.4-2.16-14.46-8.93-18.34-15.26-3.64-5.95-5.34-15.49-4.1-23.25,1.9-12.38-2-7.95,74.67-84.26L371.79,136l5.39-1.94c10.08-3.68,22-2.82,30.89,2.34a30.77,30.77,0,0,1,12.39,12.26C425.69,157.66,426.61,169.76,422.93,179.84Z" transform="translate(-65.91 -14.82)"/><path class="cls-2" d="M679,244.6C679,150,755.56,74.75,850.16,74.75c43.42,0,83.84,15.91,117.81,48.16l-40,40a110.28,110.28,0,0,0-77.82-31.39c-63.64,0-114.38,49.45-114.38,113.09,0,62.77,49.88,113.08,113.94,113.08a110.93,110.93,0,0,0,67.08-21.93v-63.2H849.72v-55.9H968.83V369.72c-34.4,28.38-73.53,44.72-118.25,44.72C755.56,414.44,679,339.19,679,244.6Z" transform="translate(-65.91 -14.82)"/><path class="cls-2" d="M996.79,301.36c0-62.78,48.59-113.09,107.07-113.09,31,0,54.6,11.18,70.51,29.67V193.43h55.9V410.14h-52L1177,382.19c-16.34,20.21-40.85,32.25-73.09,32.25C1045.38,414.44,996.79,364.56,996.79,301.36Zm179.3,0c0-34.4-27.09-61.92-61.48-61.92a61.39,61.39,0,0,0-61.92,61.92c0,34.39,27.09,62.34,61.92,62.34C1149,363.7,1176.09,335.75,1176.09,301.36Z" transform="translate(-65.91 -14.82)"/><path class="cls-2" d="M1253.5,301.36c0-62.78,47.73-113.09,108.36-113.09,26.65,0,52.45,9.89,69.22,29.67V79.05H1487V410.14h-52l-1.29-27.95c-16.34,20.21-41.7,32.25-71.8,32.25C1301.23,414.44,1253.5,364.56,1253.5,301.36Zm179.73,0c0-35.69-27.52-63.21-61.91-63.21-34.83,0-61.92,27.52-61.92,63.21S1336.49,365,1371.32,365C1405.71,365,1433.23,337,1433.23,301.36Z" transform="translate(-65.91 -14.82)"/><path class="cls-2" d="M1527.4,460l35.26-35.26c16.34,24.94,42.57,38.7,69.23,38.7,36.55,0,64.5-26.23,64.5-66.22v-12.9c-15.48,17.63-37.84,28-67.51,28-63.21,0-110.94-48.16-110.94-110.51,0-62.77,48.16-112.65,109.65-112.65,30.53,0,53.32,11.18,68.8,29.24V193.43h56.33V397.24c0,70.09-51.17,116.1-119.11,116.1C1594.91,513.34,1551.91,495.71,1527.4,460Zm170.71-158.24a62.12,62.12,0,0,0-62.35-62.34c-34.83,0-61.92,27.52-61.92,62.34,0,34.4,27.09,62.35,61.92,62.35A62.39,62.39,0,0,0,1698.11,301.78Z" transform="translate(-65.91 -14.82)"/><path class="cls-2" d="M2006,311.67H1835.28c4.3,35.26,29.24,57.62,61.06,57.62,22.79,0,43.86-11.18,55.47-31.39l44.72,18.49c-17.63,35.69-54.18,58.05-99.76,58.05-68.8,0-116.1-49.88-116.1-112.66s48.16-112.65,114.38-112.65c62.35,0,110.51,44.29,111.37,110.5Zm-165.12-42.56h106.21c-9-21.93-26.23-35.69-51.6-35.69C1869.25,233.42,1850.33,247.18,1840.87,269.11Z" transform="translate(-65.91 -14.82)"/><path class="cls-2" d="M2060.17,238.58H2017.6V193.43h42.57V115.6h55.9v77.83h42.14v45.15h-42.14V410.14h-55.9Z" transform="translate(-65.91 -14.82)"/><path class="cls-2" d="M2160.79,301.78c0-62.77,49.45-112.65,114.81-112.65,64.5,0,114.38,49.88,114.38,112.65S2340.1,414.44,2275.6,414.44C2210.24,414.44,2160.79,364.56,2160.79,301.78Zm175,0a60.19,60.19,0,0,0-60.2-60.62c-34.4,0-61.49,26.66-61.49,60.62s27.09,61.06,61.49,61.06C2308.71,362.84,2335.8,335.75,2335.8,301.78Z" transform="translate(-65.91 -14.82)"/></svg>